<mxfile host="65bd71144e">
    <diagram id="FheX42u2sQ5zZrHWEtYR" name="Page-1">
        <mxGraphModel dx="804" dy="869" grid="1" gridSize="10" guides="1" tooltips="1" connect="1" arrows="1" fold="1" page="1" pageScale="1" pageWidth="1169" pageHeight="827" math="0" shadow="0">
            <root>
                <mxCell id="0"/>
                <mxCell id="1" parent="0"/>
                <mxCell id="15" value="" style="group;fillColor=#f8cecc;strokeColor=#000000;" parent="1" vertex="1" connectable="0">
                    <mxGeometry x="440" y="39" width="685" height="750" as="geometry"/>
                </mxCell>
                <mxCell id="14" value="" style="group;fillColor=#dae8fc;strokeColor=#6c8ebf;container=0;" parent="15" vertex="1" connectable="0">
                    <mxGeometry x="40.56" y="420" width="608.39" height="290" as="geometry"/>
                </mxCell>
                <mxCell id="8" value="" style="rounded=0;whiteSpace=wrap;html=1;fillColor=#fff2cc;strokeColor=#d6b656;" parent="15" vertex="1">
                    <mxGeometry width="685" height="750" as="geometry"/>
                </mxCell>
                <mxCell id="53" value="" style="group;fontStyle=1" vertex="1" connectable="0" parent="15">
                    <mxGeometry x="40.56" y="420" width="608.3900000000001" height="290" as="geometry"/>
                </mxCell>
                <mxCell id="64" value="" style="group" vertex="1" connectable="0" parent="53">
                    <mxGeometry width="608.3900000000001" height="290" as="geometry"/>
                </mxCell>
                <mxCell id="11" value="" style="rounded=0;whiteSpace=wrap;html=1;fontSize=20;fillColor=#dae8fc;strokeColor=#6c8ebf;" parent="64" vertex="1">
                    <mxGeometry width="608.39" height="290" as="geometry"/>
                </mxCell>
                <mxCell id="13" value="KVM_2" style="text;html=1;align=center;verticalAlign=middle;resizable=0;points=[];autosize=1;strokeColor=none;fillColor=none;fontSize=20;fontColor=#000000;" parent="64" vertex="1">
                    <mxGeometry x="518.3900000000001" width="90" height="40" as="geometry"/>
                </mxCell>
                <mxCell id="24" value="&lt;b&gt;CTF Containers&lt;/b&gt;" style="html=1;fontSize=20;fontColor=#333333;fillColor=#f5f5f5;strokeColor=#666666;" parent="64" vertex="1">
                    <mxGeometry x="359.44" y="115" width="200" height="139" as="geometry"/>
                </mxCell>
                <mxCell id="55" value="&lt;b&gt;Admin Instance&lt;/b&gt;" style="rounded=0;whiteSpace=wrap;html=1;fontSize=13;fontColor=#333333;fillColor=#f5f5f5;strokeColor=#666666;" vertex="1" parent="64">
                    <mxGeometry x="409.44" y="40" width="100" height="60" as="geometry"/>
                </mxCell>
                <mxCell id="56" style="edgeStyle=none;rounded=0;jumpStyle=none;html=1;exitX=0.5;exitY=1;exitDx=0;exitDy=0;entryX=0.5;entryY=0;entryDx=0;entryDy=0;strokeWidth=2;startArrow=none;startFill=0;endArrow=none;endFill=0;endSize=6;" edge="1" parent="64" source="55" target="24">
                    <mxGeometry relative="1" as="geometry"/>
                </mxCell>
                <mxCell id="41" value="User Instance" style="rounded=0;whiteSpace=wrap;html=1;fontSize=13;fontColor=#333333;fillColor=#f5f5f5;strokeColor=#666666;" parent="64" vertex="1">
                    <mxGeometry x="89.44" y="131" width="100" height="60" as="geometry"/>
                </mxCell>
                <mxCell id="44" style="edgeStyle=orthogonalEdgeStyle;rounded=0;html=1;exitX=1;exitY=0.5;exitDx=0;exitDy=0;entryX=0;entryY=0.25;entryDx=0;entryDy=0;strokeColor=#000000;fontSize=20;fontColor=#000000;endArrow=none;endFill=0;strokeWidth=2;" parent="64" source="41" target="24" edge="1">
                    <mxGeometry relative="1" as="geometry"/>
                </mxCell>
                <mxCell id="26" value="User Instance" style="rounded=0;whiteSpace=wrap;html=1;fontSize=13;fontColor=#333333;fillColor=#f5f5f5;strokeColor=#666666;" parent="64" vertex="1">
                    <mxGeometry x="89.44" y="61" width="100" height="60" as="geometry"/>
                </mxCell>
                <mxCell id="43" style="edgeStyle=orthogonalEdgeStyle;html=1;exitX=1;exitY=0.5;exitDx=0;exitDy=0;entryX=0;entryY=0.25;entryDx=0;entryDy=0;fontSize=20;fontColor=#000000;strokeColor=#000000;rounded=0;endArrow=none;endFill=0;strokeWidth=2;" parent="64" source="26" target="24" edge="1">
                    <mxGeometry relative="1" as="geometry"/>
                </mxCell>
                <mxCell id="10" value="&lt;font style=&quot;font-size: 20px;&quot;&gt;Server&lt;/font&gt;" style="text;html=1;align=center;verticalAlign=middle;resizable=0;points=[];autosize=1;strokeColor=none;fillColor=none;fontColor=#000000;" parent="15" vertex="1">
                    <mxGeometry width="80" height="40" as="geometry"/>
                </mxCell>
                <mxCell id="51" style="edgeStyle=orthogonalEdgeStyle;rounded=0;jumpStyle=none;html=1;exitX=0.5;exitY=1;exitDx=0;exitDy=0;entryX=0;entryY=0.5;entryDx=0;entryDy=0;strokeWidth=3;startArrow=none;startFill=0;endArrow=classic;endFill=1;endSize=6;strokeColor=#4C8080;" edge="1" parent="15" source="12" target="42">
                    <mxGeometry relative="1" as="geometry"/>
                </mxCell>
                <mxCell id="66" style="edgeStyle=none;rounded=0;jumpStyle=none;html=1;exitX=1;exitY=0.75;exitDx=0;exitDy=0;entryX=0;entryY=0.5;entryDx=0;entryDy=0;strokeColor=#821A1A;strokeWidth=3;startArrow=none;startFill=0;endArrow=classic;endFill=1;endSize=6;" edge="1" parent="15" source="12" target="55">
                    <mxGeometry relative="1" as="geometry"/>
                </mxCell>
                <mxCell id="12" value="&lt;font style=&quot;font-size: 18px;&quot; color=&quot;#000000&quot;&gt;SSH_KVM&lt;/font&gt;" style="rounded=0;whiteSpace=wrap;html=1;fontSize=20;fillColor=#dae8fc;strokeColor=#6c8ebf;" parent="15" vertex="1">
                    <mxGeometry x="40.56" y="317.5" width="99.44" height="52.5" as="geometry"/>
                </mxCell>
                <mxCell id="102" style="edgeStyle=none;rounded=0;jumpStyle=none;html=1;exitX=0.25;exitY=1;exitDx=0;exitDy=0;entryX=1;entryY=0;entryDx=0;entryDy=0;strokeColor=#000000;strokeWidth=3;fontSize=18;startArrow=classic;startFill=1;endArrow=classic;endFill=1;endSize=6;" edge="1" parent="15" source="18" target="22">
                    <mxGeometry relative="1" as="geometry"/>
                </mxCell>
                <mxCell id="18" value="&lt;font color=&quot;#000000&quot;&gt;Instance &lt;br&gt;Mapping Cache&lt;/font&gt;" style="rounded=0;whiteSpace=wrap;html=1;fontSize=20;fillColor=#d5e8d4;strokeColor=#82b366;" parent="15" vertex="1">
                    <mxGeometry x="490" y="51" width="158.95" height="129" as="geometry"/>
                </mxCell>
                <mxCell id="67" style="edgeStyle=none;rounded=0;jumpStyle=none;html=1;exitX=0.25;exitY=1;exitDx=0;exitDy=0;entryX=0.5;entryY=0;entryDx=0;entryDy=0;strokeColor=#000000;strokeWidth=1;fontSize=18;startArrow=none;startFill=0;endArrow=none;endFill=0;endSize=6;dashed=1;" edge="1" parent="15" source="19" target="26">
                    <mxGeometry relative="1" as="geometry"/>
                </mxCell>
                <mxCell id="68" style="edgeStyle=none;rounded=0;jumpStyle=none;html=1;exitX=0.5;exitY=1;exitDx=0;exitDy=0;entryX=1;entryY=0.25;entryDx=0;entryDy=0;dashed=1;strokeColor=#000000;strokeWidth=1;fontSize=18;startArrow=none;startFill=0;endArrow=none;endFill=0;endSize=6;" edge="1" parent="15" source="19" target="41">
                    <mxGeometry relative="1" as="geometry"/>
                </mxCell>
                <mxCell id="19" value="&lt;font color=&quot;#000000&quot;&gt;Persistent&lt;br&gt;Home&lt;br&gt;Volumes&lt;/font&gt;" style="rounded=0;whiteSpace=wrap;html=1;fontSize=20;fillColor=#d5e8d4;strokeColor=#82b366;" parent="15" vertex="1">
                    <mxGeometry x="510" y="242.5" width="138.95" height="125" as="geometry"/>
                </mxCell>
                <mxCell id="21" value="&lt;font color=&quot;#000000&quot;&gt;Web App&lt;/font&gt;" style="rounded=0;whiteSpace=wrap;html=1;fontSize=20;fillColor=#e1d5e7;strokeColor=#9673a6;" parent="15" vertex="1">
                    <mxGeometry x="40.56" y="51" width="249.44" height="129" as="geometry"/>
                </mxCell>
                <mxCell id="61" style="rounded=0;jumpStyle=none;html=1;exitX=0.5;exitY=0;exitDx=0;exitDy=0;entryX=0.5;entryY=1;entryDx=0;entryDy=0;strokeColor=#000000;strokeWidth=3;startArrow=classic;startFill=1;endArrow=classic;endFill=1;endSize=6;" edge="1" parent="15" source="22" target="101">
                    <mxGeometry relative="1" as="geometry"/>
                </mxCell>
                <mxCell id="62" style="edgeStyle=none;rounded=0;jumpStyle=none;html=1;exitX=1;exitY=0.5;exitDx=0;exitDy=0;entryX=0;entryY=0.5;entryDx=0;entryDy=0;strokeColor=#000000;strokeWidth=3;startArrow=classic;startFill=1;endArrow=classic;endFill=1;endSize=6;" edge="1" parent="15" source="22" target="19">
                    <mxGeometry relative="1" as="geometry"/>
                </mxCell>
                <mxCell id="22" value="&lt;font color=&quot;#000000&quot;&gt;Backend Logic&lt;/font&gt;" style="rounded=0;whiteSpace=wrap;html=1;fontSize=20;fillColor=#f8cecc;strokeColor=#b85450;" parent="15" vertex="1">
                    <mxGeometry x="200" y="240" width="250" height="130" as="geometry"/>
                </mxCell>
                <mxCell id="60" style="rounded=0;jumpStyle=none;html=1;exitX=0.5;exitY=1;exitDx=0;exitDy=0;entryX=0;entryY=0.25;entryDx=0;entryDy=0;strokeColor=#000000;strokeWidth=3;startArrow=classic;startFill=1;endArrow=classic;endFill=1;endSize=6;" edge="1" parent="15" source="23" target="22">
                    <mxGeometry relative="1" as="geometry"/>
                </mxCell>
                <mxCell id="23" value="&lt;font color=&quot;#000000&quot;&gt;API&lt;/font&gt;" style="rounded=0;whiteSpace=wrap;html=1;fontSize=20;fillColor=#f8cecc;strokeColor=#b85450;" parent="15" vertex="1">
                    <mxGeometry x="40.56" y="127.5" width="99.44" height="52.5" as="geometry"/>
                </mxCell>
                <mxCell id="46" style="edgeStyle=orthogonalEdgeStyle;rounded=0;html=1;exitX=1;exitY=0.5;exitDx=0;exitDy=0;entryX=0;entryY=0.25;entryDx=0;entryDy=0;strokeColor=#000000;fontSize=20;fontColor=#000000;endArrow=none;endFill=0;strokeWidth=2;" parent="15" source="42" target="24" edge="1">
                    <mxGeometry relative="1" as="geometry"/>
                </mxCell>
                <mxCell id="42" value="User Instance" style="rounded=0;whiteSpace=wrap;html=1;fontSize=13;fontColor=#333333;fillColor=#f5f5f5;strokeColor=#666666;" parent="15" vertex="1">
                    <mxGeometry x="130" y="621" width="100" height="60" as="geometry"/>
                </mxCell>
                <mxCell id="101" value="User Database" style="rounded=0;whiteSpace=wrap;html=1;fontSize=20;fillColor=#d5e8d4;strokeColor=#82b366;" vertex="1" parent="15">
                    <mxGeometry x="310" y="51" width="158.95" height="129" as="geometry"/>
                </mxCell>
                <mxCell id="47" style="html=1;strokeColor=#000000;fontSize=13;fontColor=#000000;endArrow=classic;endFill=1;strokeWidth=3;rounded=1;exitX=1;exitY=0.3333333333333333;exitDx=0;exitDy=0;exitPerimeter=0;entryX=0;entryY=0.5;entryDx=0;entryDy=0;" parent="1" source="4" target="21" edge="1">
                    <mxGeometry relative="1" as="geometry">
                        <mxPoint x="170" y="290" as="sourcePoint"/>
                        <mxPoint x="410" y="170" as="targetPoint"/>
                    </mxGeometry>
                </mxCell>
                <mxCell id="49" style="edgeStyle=none;rounded=1;jumpStyle=none;html=1;exitX=1;exitY=0.3333333333333333;exitDx=0;exitDy=0;exitPerimeter=0;entryX=0;entryY=0.5;entryDx=0;entryDy=0;strokeWidth=3;startArrow=none;startFill=0;endArrow=classic;endFill=1;endSize=6;opacity=80;" edge="1" parent="1" source="4" target="23">
                    <mxGeometry relative="1" as="geometry"/>
                </mxCell>
                <mxCell id="50" style="edgeStyle=none;rounded=1;jumpStyle=none;html=1;exitX=1;exitY=0.3333333333333333;exitDx=0;exitDy=0;exitPerimeter=0;entryX=0;entryY=0.5;entryDx=0;entryDy=0;strokeWidth=3;startArrow=none;startFill=0;endArrow=classic;endFill=1;endSize=6;strokeColor=#4C8080;" edge="1" parent="1" source="4" target="12">
                    <mxGeometry relative="1" as="geometry"/>
                </mxCell>
                <mxCell id="4" value="User" style="shape=umlActor;verticalLabelPosition=bottom;verticalAlign=top;html=1;strokeWidth=2;" parent="1" vertex="1">
                    <mxGeometry x="120" y="250" width="50" height="100" as="geometry"/>
                </mxCell>
                <mxCell id="65" style="edgeStyle=none;rounded=0;jumpStyle=none;html=1;exitX=1;exitY=0.3333333333333333;exitDx=0;exitDy=0;exitPerimeter=0;entryX=0;entryY=0.5;entryDx=0;entryDy=0;strokeColor=#821A1A;strokeWidth=3;startArrow=none;startFill=0;endArrow=classic;endFill=1;endSize=6;" edge="1" parent="1" source="17" target="12">
                    <mxGeometry relative="1" as="geometry"/>
                </mxCell>
                <mxCell id="17" value="Admin" style="shape=umlActor;verticalLabelPosition=bottom;verticalAlign=top;html=1;strokeWidth=2;" parent="1" vertex="1">
                    <mxGeometry x="120" y="540" width="50" height="100" as="geometry"/>
                </mxCell>
                <mxCell id="48" style="edgeStyle=none;rounded=1;html=1;exitX=1;exitY=0.5;exitDx=0;exitDy=0;entryX=0;entryY=0.25;entryDx=0;entryDy=0;strokeWidth=3;endArrow=classic;endFill=1;startArrow=classic;startFill=1;endSize=6;jumpStyle=none;" edge="1" parent="1" source="20" target="21">
                    <mxGeometry relative="1" as="geometry"/>
                </mxCell>
                <mxCell id="20" value="&lt;font color=&quot;#000000&quot;&gt;VUT&lt;br&gt;Auth&lt;/font&gt;" style="rounded=0;whiteSpace=wrap;html=1;fontSize=20;fillColor=#f8cecc;strokeColor=#b85450;" parent="1" vertex="1">
                    <mxGeometry x="170" y="40" width="120" height="100" as="geometry"/>
                </mxCell>
                <mxCell id="63" style="edgeStyle=none;rounded=0;jumpStyle=none;html=1;exitX=0.5;exitY=1;exitDx=0;exitDy=0;strokeColor=#000000;strokeWidth=3;startArrow=classic;startFill=1;endArrow=classic;endFill=1;endSize=6;" edge="1" parent="1" source="22">
                    <mxGeometry relative="1" as="geometry">
                        <mxPoint x="765.2857142857142" y="460" as="targetPoint"/>
                    </mxGeometry>
                </mxCell>
            </root>
        </mxGraphModel>
    </diagram>
</mxfile>